{
	"patcher" : 	{
		"fileversion" : 1,
		"appversion" : 		{
			"major" : 8,
			"minor" : 1,
			"revision" : 3,
			"architecture" : "x64",
			"modernui" : 1
		}
,
		"classnamespace" : "box",
		"rect" : [ 158.0, 206.0, 640.0, 480.0 ],
		"bglocked" : 0,
		"openinpresentation" : 0,
		"default_fontsize" : 12.0,
		"default_fontface" : 0,
		"default_fontname" : "Arial",
		"gridonopen" : 1,
		"gridsize" : [ 15.0, 15.0 ],
		"gridsnaponopen" : 1,
		"objectsnaponopen" : 1,
		"statusbarvisible" : 2,
		"toolbarvisible" : 1,
		"lefttoolbarpinned" : 0,
		"toptoolbarpinned" : 0,
		"righttoolbarpinned" : 0,
		"bottomtoolbarpinned" : 0,
		"toolbars_unpinned_last_save" : 0,
		"tallnewobj" : 0,
		"boxanimatetime" : 200,
		"enablehscroll" : 1,
		"enablevscroll" : 1,
		"devicewidth" : 0.0,
		"description" : "",
		"digest" : "",
		"tags" : "",
		"style" : "",
		"subpatcher_template" : "",
		"boxes" : [ 			{
				"box" : 				{
					"id" : "obj-6",
					"maxclass" : "newobj",
					"numinlets" : 1,
					"numoutlets" : 4,
					"outlettype" : [ "", "", "", "" ],
					"patching_rect" : [ 563.636332392692566, 81.818177282810211, 56.0, 22.0 ],
					"restore" : 					{
						"MIDI-device" : [ 3 ],
						"midi-channel[1]" : [ 0 ],
						"prophet08-cc-midi-table" : [ 7 ],
						"prophet08-midi-channel" : [ 0 ],
						"prophet08-nrpn-midi-table" : [ 0 ]
					}
,
					"text" : "autopattr",
					"varname" : "u975005494"
				}

			}
, 			{
				"box" : 				{
					"id" : "obj-3",
					"maxclass" : "newobj",
					"numinlets" : 0,
					"numoutlets" : 1,
					"outlettype" : [ "" ],
					"patching_rect" : [ 531.573413968086243, 240.512403428554535, 77.0, 22.0 ],
					"text" : "r midi-device"
				}

			}
, 			{
				"box" : 				{
					"id" : "obj-2",
					"maxclass" : "newobj",
					"numinlets" : 0,
					"numoutlets" : 1,
					"outlettype" : [ "" ],
					"patching_rect" : [ 47.413225889205933, 210.223150849342346, 77.0, 22.0 ],
					"text" : "r midi-device"
				}

			}
, 			{
				"box" : 				{
					"id" : "obj-1",
					"maxclass" : "newobj",
					"numinlets" : 1,
					"numoutlets" : 0,
					"patching_rect" : [ 66.383333384990692, 102.0, 79.0, 22.0 ],
					"text" : "s midi-device"
				}

			}
, 			{
				"box" : 				{
					"id" : "obj-558",
					"maxclass" : "newobj",
					"numinlets" : 1,
					"numoutlets" : 1,
					"outlettype" : [ "" ],
					"patching_rect" : [ 66.383333384990692, 70.879338002960139, 77.0, 22.0 ],
					"text" : "prepend port"
				}

			}
, 			{
				"box" : 				{
					"fontname" : "Menlo Regular",
					"id" : "obj-5",
					"maxclass" : "comment",
					"numinlets" : 1,
					"numoutlets" : 0,
					"patching_rect" : [ 153.383333384990692, 15.879338002960139, 99.0, 20.0 ],
					"text" : "Refresh List"
				}

			}
, 			{
				"box" : 				{
					"fontname" : "Menlo Regular",
					"id" : "obj-4",
					"maxclass" : "comment",
					"numinlets" : 1,
					"numoutlets" : 0,
					"patching_rect" : [ 171.383333384990692, 41.879338002960139, 99.0, 20.0 ],
					"text" : "MIDI Device"
				}

			}
, 			{
				"box" : 				{
					"id" : "obj-18",
					"maxclass" : "button",
					"numinlets" : 1,
					"numoutlets" : 1,
					"outlettype" : [ "bang" ],
					"parameter_enable" : 0,
					"patching_rect" : [ 66.383333384990692, 15.879338002960139, 20.0, 20.0 ]
				}

			}
, 			{
				"box" : 				{
					"id" : "obj-163",
					"items" : [ "AU DLS Synth 1", ",", "Driver IAC Barramento 1", ",", "from Max 1", ",", "from Max 2" ],
					"maxclass" : "umenu",
					"numinlets" : 1,
					"numoutlets" : 3,
					"outlettype" : [ "int", "", "" ],
					"parameter_enable" : 0,
					"patching_rect" : [ 66.383333384990692, 41.879338002960139, 100.0, 22.0 ],
					"varname" : "MIDI-device"
				}

			}
, 			{
				"box" : 				{
					"id" : "obj-155",
					"maxclass" : "newobj",
					"numinlets" : 2,
					"numoutlets" : 1,
					"outlettype" : [ "" ],
					"patching_rect" : [ 92.883333384990692, 15.879338002960139, 52.0, 22.0 ],
					"text" : "midiinfo"
				}

			}
, 			{
				"box" : 				{
					"fontname" : "Menlo Regular",
					"fontsize" : 10.0,
					"id" : "obj-535",
					"linecount" : 2,
					"maxclass" : "comment",
					"numinlets" : 1,
					"numoutlets" : 0,
					"patching_rect" : [ 464.877584174275285, 217.19170743227005, 55.220831950505726, 30.0 ],
					"presentation_linecount" : 2,
					"text" : "MIDI Channel"
				}

			}
, 			{
				"box" : 				{
					"fontname" : "Menlo Regular",
					"fontsize" : 10.0,
					"id" : "obj-246",
					"maxclass" : "comment",
					"numinlets" : 1,
					"numoutlets" : 0,
					"patching_rect" : [ 118.209779620170593, 135.28675749226386, 153.0, 18.0 ],
					"text" : "Prophet08 CC MIDI Table"
				}

			}
, 			{
				"box" : 				{
					"id" : "obj-247",
					"items" : [ 20, ",", 21, ",", 22, ",", 23, ",", 24, ",", 25, ",", 26, ",", 27, ",", 28, ",", 29, ",", 102, ",", 103, ",", 104, ",", 105, ",", 106, ",", 107, ",", 108, ",", 109, ",", 110, ",", 111, ",", 112, ",", 113, ",", 114, ",", 115, ",", 116, ",", 117, ",", 118, ",", 119, ",", 75, ",", 76, ",", 85, ",", 86, ",", 87, ",", 88, ",", 89, ",", 90, ",", 77, ",", 78, ",", 14, ",", 15, ",", 1, ",", 2, ",", 4, ",", 7, ",", 11, ",", 32, ",", 64, ",", 74, ",", 121, ",", 123 ],
					"maxclass" : "umenu",
					"numinlets" : 1,
					"numoutlets" : 3,
					"outlettype" : [ "int", "", "" ],
					"parameter_enable" : 0,
					"patching_rect" : [ 118.209779620170593, 184.28675749226386, 100.0, 22.0 ]
				}

			}
, 			{
				"box" : 				{
					"id" : "obj-248",
					"items" : [ "Osc", 1, "Frequency", ",", "Osc", 1, "Freq", "Fine", ",", "Osc", 1, "Shape", ",", "Glide", 1, ",", "Osc", 2, "Frequency", ",", "Osc", 2, "Freq", "Fine", ",", "Osc", 2, "Shape", ",", "Glide", 2, ",", "Osc", "Mix", ",", "Noise", "Level", ",", "Filter", "Frequency", 1, ",", "Resonance", 1, ",", "Filter", "Key", "Amt", 1, ",", "Filter", "Audio", "Mod", 1, ",", "Filter", "Env", "Amt", 1, ",", "Filter", "Env", "Vel", "Amt", 1, ",", "Filter", "Delay", 1, ",", "Filter", "Attack", 1, ",", "Filter", "Decay", 1, ",", "Filter", "Sustain", 1, ",", "Filter", "Release", 1, ",", "VCA", "Level", 1, ",", "Pan", "Spread", 1, ",", "Amp", "Env", "Amt", 1, ",", "Amp", "Velocity", "Amt", 1, ",", "Amp", "Delay", 1, ",", "Amp", "Attack", 1, ",", "Amp", "Decay", 1, ",", "Amp", "Sustain", ",", "Amp", "Release", ",", "Env", 3, "Destination", ",", "Env", 3, "Amt", ",", "Env", 3, "Velocity", "Amt", ",", "Env", 3, "Delay", ",", "Env", 3, "Attack", ",", "Env", 3, "Decay", ",", "Env", 3, "Sustain", ",", "Env", 3, "Release", ",", "BPM", ",", "Clock", "Divide", ",", "Modulation", "Wheel", "or", "Lever", ",", "Breath", "Controller", ",", "Foot", "Controller", ",", "Channel", "Volume", "(formerly", "Main", "Volume)", ",", "Expression", "Controller", ",", "Bank", "Select", "(0-1)", ",", "Damper", "Pedal", "on/off", "(Sustain)", "≤63", "off", ",", "≥64", "on", ",", "Sound", "Controller", 5, "(default:", "Brightness)", ",", "Reset", "All", "Controllers ", ",", "All", "Notes", "Off" ],
					"maxclass" : "umenu",
					"numinlets" : 1,
					"numoutlets" : 3,
					"outlettype" : [ "int", "", "" ],
					"parameter_enable" : 0,
					"patching_rect" : [ 118.209779620170593, 155.28675749226386, 211.608336349328283, 22.0 ],
					"varname" : "prophet08-cc-midi-table"
				}

			}
, 			{
				"box" : 				{
					"fontname" : "Menlo Regular",
					"fontsize" : 10.0,
					"id" : "obj-559",
					"maxclass" : "comment",
					"numinlets" : 1,
					"numoutlets" : 0,
					"patching_rect" : [ 47.413225889205933, 135.017878197868413, 61.0, 18.0 ],
					"text" : "CC value"
				}

			}
, 			{
				"box" : 				{
					"fontname" : "Menlo Regular",
					"fontsize" : 10.0,
					"id" : "obj-555",
					"maxclass" : "comment",
					"numinlets" : 1,
					"numoutlets" : 0,
					"patching_rect" : [ 451.4478314667939, 139.979913903793204, 163.0, 18.0 ],
					"text" : "Prophet08 NRPN MIDI Table"
				}

			}
, 			{
				"box" : 				{
					"id" : "obj-556",
					"items" : [ 0, ",", 1, ",", 2, ",", 3, ",", 4, ",", 5, ",", 6, ",", 7, ",", 8, ",", 9, ",", 10, ",", 11, ",", 12, ",", 13, ",", 14, ",", 15, ",", 16, ",", 17, ",", 18, ",", 19, ",", 20, ",", 21, ",", 22, ",", 23, ",", 24, ",", 25, ",", 26, ",", 27, ",", 28, ",", 29, ",", 30, ",", 31, ",", 32, ",", 33, ",", 34, ",", 35, ",", 36, ",", 37, ",", 38, ",", 39, ",", 40, ",", 41, ",", 42, ",", 43, ",", 44, ",", 45, ",", 46, ",", 47, ",", 48, ",", 49, ",", 50, ",", 51, ",", 52, ",", 53, ",", 54, ",", 55, ",", 56, ",", 57, ",", 58, ",", 59, ",", 60, ",", 61, ",", 62, ",", 63, ",", 64, ",", 65, ",", 66, ",", 67, ",", 68, ",", 69, ",", 70, ",", 71, ",", 72, ",", 73, ",", 74, ",", 75, ",", 76, ",", 77, ",", 78, ",", 79, ",", 80, ",", 81, ",", 82, ",", 83, ",", 84, ",", 85, ",", 86, ",", 87, ",", 88, ",", 89, ",", 90, ",", 91, ",", 92, ",", 93, ",", 94, ",", 95, ",", 96, ",", 97, ",", 98, ",", 99, ",", 100, ",", 101 ],
					"maxclass" : "umenu",
					"numinlets" : 1,
					"numoutlets" : 3,
					"outlettype" : [ "int", "", "" ],
					"parameter_enable" : 0,
					"patching_rect" : [ 451.4478314667939, 188.979913903793204, 100.0, 22.0 ]
				}

			}
, 			{
				"box" : 				{
					"id" : "obj-557",
					"items" : [ "Oscillator", 1, "Frequency", ";", 0, "-", 120, "in", "semitones", "(10", "octave", "range)", ",", "Oscillator", 1, "Fine", "Tune", ";", 0, "=", -50, "cents", ";", 50, "=", 0, "(centered)", ";", 100, "=", "+", 50, "cents", ",", "Oscillator", 1, "Shape", 0, "Oscillator", "Off", 1, "Sawtooth", 2, "Triangle", 3, "Sawtooth/triangle", "mix", "4-103", "Pulse", "Wave", ";", "Pulse", "width", "0-99", ",", "Oscillator", 1, "Glide", ",", "Oscillator", 1, "Keyboard", "Off/On", ",", "Oscillator", 2, "Frequency", ";", 0, "-", 120, "in", "semitones", "(10", "octave", "range)", ",", "Oscillator", 2, "Fine", "Tune", ";", 0, "=", -50, "cents", ";", 50, "=", 0, "(centered)", ";", 100, "=", "+", 50, "cents", ",", "Oscillator", 2, "Shape", 0, "Oscillator", "Off", 1, "Sawtooth", 2, "Triangle", 3, "Sawtooth/triangle", "mix", "4-103", "Pulse", "Wave", ";", "Pulse", "width", "0-99", ",", "Oscillator", 2, "Glide", ",", "Oscillator", 2, "Keyboard", "Off/On", ",", "Sync", "off/on", ",", "Glide", "Mode:", 0, "fixed", "rate", 1, "fixed", "rate", "auto", 2, "fixed", "time", 3, "fixed", "time", "auto", ",", "Oscillator", "Slop", ",", "Oscillator", 1, "-", 2, "Mix", ",", "Noise", "Level", ",", "Filter", "Frequency", ";", "steps", "in", "semitones", ",", "Resonance", ",", "Filter", "Keyboard", "Amount", ",", "Filter", "Audio", "Modulation", ",", "Filter", "Poles", "0:", "2-pole", ";", "1:", "4-pole", ",", "Filter", "Envelope", "Amount", ";", -127, "to+127", ",", "Filter", "Envelope", "Velocity", "Amount", ",", "Filter", "Envelope", "Delay", ",", "Filter", "Envelope", "Attack", ",", "Filter", "Envelope", "Decay", ",", "Filter", "Envelope", "Sustain", ",", "Filter", "Envelope", "Release", ",", "VCA", "Initial", "Level", ",", "Output", "Spread", ",", "Voice", "Volume", ",", "VCA", "Envelope", "Amount", ",", "VCA", "Envelope", "Velocity", "Amount", ",", "VCA", "Envelope", "Delay", ",", "VCA", "Envelope", "Attack", ",", "VCA", "Envelope", "Decay", ",", "VCA", "Envelope", "Sustain", ",", "VCA", "Envelope", "Release", ",", "LFO", 1, "Frequency", ";", "0-150", "unsynced", "frequencies", 151, "Sequence", "speed", "divided", "by", 32, 152, "Sequence", "speed", "divided", "by", 16, 153, "Sequence", "speed", "divided", "by", 8, 154, "Sequence", "speed", "divided", "by", 6, 155, "Sequence", "speed", "divided", "by", 4, 156, "Sequence", "speed", "divided", "by", 3, 157, "Sequence", "speed", "divided", "by", 2, 158, "Sequence", "speed", "divided", "by", 1.5, 159, "One", "cycle", "per", "step", 160, "Two", "cycles", "per", "three", "steps", 161, "Two", "cycles", "per", "step", 162, "One", "cycles", "per", "three", "steps", 163, "Four", "cycles", "per", "step", 164, "Six", "cycles", "per", "step", 165, "Eight", "cycles", "per", "step", 166, "Sixteen", "cycles", "per", "step", ",", "LFO", 1, "Shape", 0, "Triangle", 1, "Reverse", "Sawtooth", 2, "Sawtooth", 3, "Pulse", "(square)", 4, "Random", ",", "LFO", 1, "Amount", ",", "LFO", 1, "Mod", "Destination", ";", "See", "Modulation", "Destination", "list", "below", ",", "LFO", 1, "Key", "Sync", "Off/On", ",", "LFO", 2, "Frequency", ";", "same", "as", "LFO", 1, ",", "LFO", 2, "Shape", ";", "same", "as", "LFO", 1, ",", "LFO", 2, "Amount", ",", "LFO", 2, "Mod", "Destination", ";", "See", "Modulation", "Destination", "list", "below", ",", "LFO", 2, "Key", "Sync", "Off/On", ",", "LFO", 3, "Frequency", ";", "same", "as", "LFO", 1, ",", "LFO", 3, "Shape", ";", "same", "as", "LFO", 1, ",", "LFO", 3, "Amount", ",", "LFO", 3, "Mod", "Destination", ";", "See", "Modulation", "Destination", "list", "below", ",", "LFO", 3, "Key", "Sync", "Off/On", ",", "LFO", 4, "Frequency", ";", "same", "as", "LFO", 1, ",", "LFO", 4, "Shape", ";", "same", "as", "LFO", 1, ",", "LFO", 4, "Amount", ",", "LFO", 4, "Mod", "Destination", ";", "See", "Modulation", "Destination", "list", "below", ",", "LFO", 4, "Key", "Sync", "Off/On", ",", "Envelope", 3, "Mod", "Destination", ";", "See", "Mod", "Destination", "list", "below", ",", "Envelope", 3, "Amount", ";", -127, "to+127", ",", "Envelope", 3, "Velocity", "Amount", ",", "Envelope", 3, "Delay", ",", "Envelope", 3, "Attack", ",", "Envelope", 3, "Decay", ",", "Envelope", 3, "Sustain", ",", "Envelope", 3, "Release", ",", "Mod", 1, "Source", ";", "See", "Modulation", "Source", "list", "below", ",", "Mod", 1, "Amount", ";", -127, "to", "+127", ",", "Mod", 1, "Destination", ";", "See", "Modulation", "Destination", "list", "below", ",", "Mod", 2, "Source", ";", "See", "Modulation", "Source", "list", "below", ",", "Mod", 2, "Amount", ";", -127, "to+127", ",", "Mod", 2, "Destination", ";", "See", "Modulation", "Destination", "list", "below", ",", "Mod", 3, "Source", ";", "See", "Modulation", "Source", "list", "below", ",", "Mod3", "Amount", ";", -127, "to+127", ",", "Mod", 3, "Destination", ";", "See", "Modulation", "Destination", "list", "below", ",", "Mod", 4, "Source", ";", "See", "Modulation", "Source", "list", "below", ",", "Mod", 4, "Amount", ";", -127, "to", "+127", ",", "Mod", 4, "Destination", ";", "See", "Modulation", "Destination", "list", "below", ",", "Sequence", 1, "Destination", ";", "See", "ModDestination", "list", "below", ",", "Sequence", 2, "Destination", ";", "See", "ModDestination", "list", "below", ",", "Sequence", 3, "Destination", ";", "See", "ModDestination", "list", "below", ",", "Sequence", 4, "Destination", ";", "See", "ModDestination", "list", "below", ",", "Mod", "Wheel", "Amount", ";", -127, "to+127", ",", "Mod", "Wheel", "Destination", ";", "See", "ModDestination", "list", "below", ",", "Pressure", "Amount", ";", -127, "to+127", ",", "Pressure", "Destination", ";", "See", "ModDestination", "list", "below", ",", "Breath", "Amount", ";", -127, "to", "+127", ",", "Breath", "Destination", ";", "See", "ModDestination", "list", "below", ",", "Velocity", "Amount", ";", -127, "to", "+127", ",", "Velocity", "Destination", ";", "See", "ModDestination", "list", "below", ",", "Foot", "Control", "Amount", ";", -127, "to+127", ",", "Foot", "Control", "Destination", ";", "See", "ModDestination", "list", "below", ",", "BPM", "tempo", ",", "Clock", "Divide:", "Half", "Note", "Quarter", "Note", "Eighth", "Note", "Eighth", "Note", "half", "swing", "Eighth", "Note", "full", "swing", "Eighth", "Note", "triplets", "Sixteenth", "Note", "Sixteenth", "Note", "half", "swing", "Sixteenth", "Note", "full", "swing", "Sixteenth", "Note", "triplets", "Thirty-second", "Notes", "Thirty-second", "Notes", "triplets", "Sixty-Fourth", "note", "triplets", ",", "Pitch", "Bend", "Range", ",", "Sequencer", "Trigger:", 0, "Normal", 1, "Normal", ";", "no", "reset", 2, "No", "gate", 3, "No", "gate/no", "reset", 4, "key", "step", ",", "Key", "Mode:", 0, "Low", "note", "priority", 1, "Low", "note", "priority", "with", "re-trigger", 2, "High", "note", "priority", 3, "High", "note", "priority", "with", "re-trigger", 4, "Last", "note", "hit", "priority", 5, "Last", "note", "hit", "priority", "with", "re-trigger", ",", "Unison", "Mode:", 0, 1, "voice", 1, "All", "voices", 2, "All", "voices", "detunel", 3, "All", "voices", "detune2", 4, "All", "voices", "detune3", ",", "Arpeggiator", "Mode:", 0, "Up", 1, "Down", 2, "Up/Down", ";", 3, "Assign", ",", "Envelope", 3, "Repear", "Mode", ";", "off/on", ",", "Unison", ";", "off/on", ",", "Arpeggiator", ";", "off/on", ",", "Gated", "Sequencer", ";", "off/on" ],
					"maxclass" : "umenu",
					"numinlets" : 1,
					"numoutlets" : 3,
					"outlettype" : [ "int", "", "" ],
					"parameter_enable" : 0,
					"patching_rect" : [ 451.4478314667939, 159.979913903793204, 212.108325868845213, 22.0 ],
					"varname" : "prophet08-nrpn-midi-table"
				}

			}
, 			{
				"box" : 				{
					"id" : "obj-531",
					"maxclass" : "number",
					"numinlets" : 1,
					"numoutlets" : 2,
					"outlettype" : [ "", "bang" ],
					"parameter_enable" : 0,
					"patching_rect" : [ 386.158578887581712, 170.339149488529074, 50.0, 22.0 ]
				}

			}
, 			{
				"box" : 				{
					"id" : "obj-532",
					"maxclass" : "number",
					"maximum" : 15,
					"minimum" : 0,
					"numinlets" : 1,
					"numoutlets" : 2,
					"outlettype" : [ "", "bang" ],
					"parameter_enable" : 0,
					"patching_rect" : [ 464.877584174275285, 248.02509559543978, 50.0, 22.0 ],
					"varname" : "prophet08-midi-channel"
				}

			}
, 			{
				"box" : 				{
					"fontname" : "Menlo Regular",
					"fontsize" : 10.0,
					"id" : "obj-534",
					"linecount" : 2,
					"maxclass" : "comment",
					"numinlets" : 1,
					"numoutlets" : 0,
					"patching_rect" : [ 386.158578887581712, 139.505761325359344, 42.0, 30.0 ],
					"text" : "NRPN Value"
				}

			}
, 			{
				"box" : 				{
					"id" : "obj-537",
					"maxclass" : "newobj",
					"numinlets" : 5,
					"numoutlets" : 2,
					"outlettype" : [ "", "" ],
					"patcher" : 					{
						"fileversion" : 1,
						"appversion" : 						{
							"major" : 8,
							"minor" : 1,
							"revision" : 3,
							"architecture" : "x64",
							"modernui" : 1
						}
,
						"classnamespace" : "box",
						"rect" : [ 151.0, 156.0, 640.0, 480.0 ],
						"bglocked" : 0,
						"openinpresentation" : 0,
						"default_fontsize" : 12.0,
						"default_fontface" : 0,
						"default_fontname" : "Arial",
						"gridonopen" : 1,
						"gridsize" : [ 15.0, 15.0 ],
						"gridsnaponopen" : 1,
						"objectsnaponopen" : 1,
						"statusbarvisible" : 2,
						"toolbarvisible" : 1,
						"lefttoolbarpinned" : 0,
						"toptoolbarpinned" : 0,
						"righttoolbarpinned" : 0,
						"bottomtoolbarpinned" : 0,
						"toolbars_unpinned_last_save" : 0,
						"tallnewobj" : 0,
						"boxanimatetime" : 200,
						"enablehscroll" : 1,
						"enablevscroll" : 1,
						"devicewidth" : 0.0,
						"description" : "",
						"digest" : "",
						"tags" : "",
						"style" : "",
						"subpatcher_template" : "",
						"boxes" : [ 							{
								"box" : 								{
									"comment" : "Maximum NRPN Possible Value",
									"id" : "obj-33",
									"index" : 2,
									"maxclass" : "outlet",
									"numinlets" : 1,
									"numoutlets" : 0,
									"patching_rect" : [ 595.0, 705.0, 30.0, 30.0 ]
								}

							}
, 							{
								"box" : 								{
									"comment" : "Minimum NRPN Possible Value",
									"id" : "obj-30",
									"index" : 1,
									"maxclass" : "outlet",
									"numinlets" : 1,
									"numoutlets" : 0,
									"patching_rect" : [ 540.0, 705.0, 30.0, 30.0 ]
								}

							}
, 							{
								"box" : 								{
									"id" : "obj-28",
									"maxclass" : "newobj",
									"numinlets" : 1,
									"numoutlets" : 1,
									"outlettype" : [ "" ],
									"patching_rect" : [ 569.0, 635.0, 81.0, 22.0 ],
									"text" : "prepend max"
								}

							}
, 							{
								"box" : 								{
									"id" : "obj-13",
									"maxclass" : "newobj",
									"numinlets" : 1,
									"numoutlets" : 1,
									"outlettype" : [ "" ],
									"patching_rect" : [ 444.5, 635.0, 77.0, 22.0 ],
									"text" : "prepend min"
								}

							}
, 							{
								"box" : 								{
									"id" : "obj-12",
									"items" : [ 120, ",", 100, ",", 103, ",", 127, ",", 1, ",", 120, ",", 100, ",", 103, ",", 127, ",", 1, ",", 1, ",", 3, ",", 5, ",", 127, ",", 127, ",", 164, ",", 127, ",", 127, ",", 127, ",", 1, ",", 254, ",", 127, ",", 127, ",", 127, ",", 127, ",", 127, ",", 127, ",", 127, ",", 127, ",", 127, ",", 127, ",", 127, ",", 127, ",", 127, ",", 127, ",", 127, ",", 127, ",", 166, ",", 4, ",", 127, ",", 43, ",", 1, ",", 166, ",", 4, ",", 127, ",", 43, ",", 1, ",", 166, ",", 4, ",", 127, ",", 43, ",", 1, ",", 166, ",", 4, ",", 127, ",", 43, ",", 1, ",", 43, ",", 254, ",", 127, ",", 127, ",", 127, ",", 127, ",", 127, ",", 127, ",", 20, ",", 254, ",", 43, ",", 20, ",", 254, ",", 43, ",", 20, ",", 254, ",", 43, ",", 20, ",", 254, ",", 43, ",", 43, ",", 43, ",", 43, ",", 43, ",", 254, ",", 43, ",", 254, ",", 43, ",", 254, ",", 43, ",", 254, ",", 43, ",", 254, ",", 43, ",", 250, ",", 12, ",", 12, ",", 4, ",", 5, ",", 4, ",", 3, ",", 1, ",", 1, ",", 1, ",", 1 ],
									"maxclass" : "umenu",
									"numinlets" : 1,
									"numoutlets" : 3,
									"outlettype" : [ "int", "", "" ],
									"parameter_enable" : 0,
									"patching_rect" : [ 569.0, 601.0, 100.0, 22.0 ]
								}

							}
, 							{
								"box" : 								{
									"id" : "obj-11",
									"items" : [ 0, ",", 0, ",", 0, ",", 0, ",", 0, ",", 0, ",", 0, ",", 0, ",", 0, ",", 0, ",", 0, ",", 0, ",", 0, ",", 0, ",", 0, ",", 0, ",", 0, ",", 0, ",", 0, ",", 0, ",", 0, ",", 0, ",", 0, ",", 0, ",", 0, ",", 0, ",", 0, ",", 0, ",", 0, ",", 0, ",", 0, ",", 0, ",", 0, ",", 0, ",", 0, ",", 0, ",", 0, ",", 0, ",", 0, ",", 0, ",", 0, ",", 0, ",", 0, ",", 0, ",", 0, ",", 0, ",", 0, ",", 0, ",", 0, ",", 0, ",", 0, ",", 0, ",", 0, ",", 0, ",", 0, ",", 0, ",", 0, ",", 0, ",", 0, ",", 0, ",", 0, ",", 0, ",", 0, ",", 0, ",", 0, ",", 0, ",", 0, ",", 0, ",", 0, ",", 0, ",", 0, ",", 0, ",", 0, ",", 0, ",", 0, ",", 0, ",", 0, ",", 0, ",", 0, ",", 0, ",", 0, ",", 0, ",", 0, ",", 0, ",", 0, ",", 0, ",", 0, ",", 0, ",", 0, ",", 0, ",", 0, ",", 30, ",", 0, ",", 0, ",", 0, ",", 0, ",", 0, ",", 0, ",", 0, ",", 0, ",", 0, ",", 0 ],
									"maxclass" : "umenu",
									"numinlets" : 1,
									"numoutlets" : 3,
									"outlettype" : [ "int", "", "" ],
									"parameter_enable" : 0,
									"patching_rect" : [ 444.5, 601.0, 100.0, 22.0 ]
								}

							}
, 							{
								"box" : 								{
									"fontname" : "Menlo Regular",
									"fontsize" : 10.0,
									"id" : "obj-6",
									"maxclass" : "comment",
									"numinlets" : 1,
									"numoutlets" : 0,
									"patching_rect" : [ 178.5, 149.0, 85.0, 18.0 ],
									"text" : "NRPN Value"
								}

							}
, 							{
								"box" : 								{
									"id" : "obj-58",
									"maxclass" : "number",
									"minimum" : 0,
									"numinlets" : 1,
									"numoutlets" : 2,
									"outlettype" : [ "", "bang" ],
									"parameter_enable" : 0,
									"patching_rect" : [ 339.5, 302.0, 50.0, 22.0 ]
								}

							}
, 							{
								"box" : 								{
									"id" : "obj-41",
									"maxclass" : "newobj",
									"numinlets" : 1,
									"numoutlets" : 2,
									"outlettype" : [ "", "" ],
									"patcher" : 									{
										"fileversion" : 1,
										"appversion" : 										{
											"major" : 8,
											"minor" : 1,
											"revision" : 3,
											"architecture" : "x64",
											"modernui" : 1
										}
,
										"classnamespace" : "box",
										"rect" : [ 84.0, 129.0, 640.0, 480.0 ],
										"bglocked" : 0,
										"openinpresentation" : 0,
										"default_fontsize" : 12.0,
										"default_fontface" : 0,
										"default_fontname" : "Arial",
										"gridonopen" : 1,
										"gridsize" : [ 15.0, 15.0 ],
										"gridsnaponopen" : 1,
										"objectsnaponopen" : 1,
										"statusbarvisible" : 2,
										"toolbarvisible" : 1,
										"lefttoolbarpinned" : 0,
										"toptoolbarpinned" : 0,
										"righttoolbarpinned" : 0,
										"bottomtoolbarpinned" : 0,
										"toolbars_unpinned_last_save" : 0,
										"tallnewobj" : 0,
										"boxanimatetime" : 200,
										"enablehscroll" : 1,
										"enablevscroll" : 1,
										"devicewidth" : 0.0,
										"description" : "",
										"digest" : "",
										"tags" : "",
										"style" : "",
										"subpatcher_template" : "",
										"boxes" : [ 											{
												"box" : 												{
													"comment" : "LSB",
													"id" : "obj-9",
													"index" : 2,
													"maxclass" : "outlet",
													"numinlets" : 1,
													"numoutlets" : 0,
													"patching_rect" : [ 91.0, 169.0, 30.0, 30.0 ]
												}

											}
, 											{
												"box" : 												{
													"comment" : "MSB",
													"id" : "obj-8",
													"index" : 1,
													"maxclass" : "outlet",
													"numinlets" : 1,
													"numoutlets" : 0,
													"patching_rect" : [ 34.0, 169.0, 30.0, 30.0 ]
												}

											}
, 											{
												"box" : 												{
													"comment" : "Input number to break into MSB and LSB",
													"id" : "obj-5",
													"index" : 1,
													"maxclass" : "inlet",
													"numinlets" : 0,
													"numoutlets" : 1,
													"outlettype" : [ "" ],
													"patching_rect" : [ 32.0, 13.0, 30.0, 30.0 ]
												}

											}
, 											{
												"box" : 												{
													"id" : "obj-2",
													"maxclass" : "number",
													"numinlets" : 1,
													"numoutlets" : 2,
													"outlettype" : [ "", "bang" ],
													"parameter_enable" : 0,
													"patching_rect" : [ 34.0, 53.0, 50.0, 22.0 ]
												}

											}
, 											{
												"box" : 												{
													"id" : "obj-37",
													"maxclass" : "number",
													"numinlets" : 1,
													"numoutlets" : 2,
													"outlettype" : [ "", "bang" ],
													"parameter_enable" : 0,
													"patching_rect" : [ 91.0, 130.0, 50.0, 22.0 ]
												}

											}
, 											{
												"box" : 												{
													"id" : "obj-35",
													"maxclass" : "number",
													"numinlets" : 1,
													"numoutlets" : 2,
													"outlettype" : [ "", "bang" ],
													"parameter_enable" : 0,
													"patching_rect" : [ 34.0, 130.0, 50.0, 22.0 ]
												}

											}
, 											{
												"box" : 												{
													"id" : "obj-33",
													"maxclass" : "newobj",
													"numinlets" : 2,
													"numoutlets" : 1,
													"outlettype" : [ "int" ],
													"patching_rect" : [ 91.0, 96.0, 45.0, 22.0 ],
													"text" : "% 128"
												}

											}
, 											{
												"box" : 												{
													"id" : "obj-30",
													"maxclass" : "newobj",
													"numinlets" : 2,
													"numoutlets" : 1,
													"outlettype" : [ "int" ],
													"patching_rect" : [ 34.0, 96.0, 35.0, 22.0 ],
													"text" : ">> 7"
												}

											}
 ],
										"lines" : [ 											{
												"patchline" : 												{
													"destination" : [ "obj-30", 0 ],
													"order" : 1,
													"source" : [ "obj-2", 0 ]
												}

											}
, 											{
												"patchline" : 												{
													"destination" : [ "obj-33", 0 ],
													"order" : 0,
													"source" : [ "obj-2", 0 ]
												}

											}
, 											{
												"patchline" : 												{
													"destination" : [ "obj-35", 0 ],
													"source" : [ "obj-30", 0 ]
												}

											}
, 											{
												"patchline" : 												{
													"destination" : [ "obj-37", 0 ],
													"source" : [ "obj-33", 0 ]
												}

											}
, 											{
												"patchline" : 												{
													"destination" : [ "obj-8", 0 ],
													"source" : [ "obj-35", 0 ]
												}

											}
, 											{
												"patchline" : 												{
													"destination" : [ "obj-9", 0 ],
													"source" : [ "obj-37", 0 ]
												}

											}
, 											{
												"patchline" : 												{
													"destination" : [ "obj-2", 0 ],
													"source" : [ "obj-5", 0 ]
												}

											}
 ],
										"styles" : [ 											{
												"name" : "AudioStatus_Menu",
												"default" : 												{
													"bgfillcolor" : 													{
														"type" : "color",
														"color" : [ 0.294118, 0.313726, 0.337255, 1 ],
														"color1" : [ 0.454902, 0.462745, 0.482353, 0.0 ],
														"color2" : [ 0.290196, 0.309804, 0.301961, 1.0 ],
														"angle" : 270.0,
														"proportion" : 0.39,
														"autogradient" : 0
													}

												}
,
												"parentstyle" : "",
												"multi" : 0
											}
, 											{
												"name" : "newobjBlue-1",
												"default" : 												{
													"accentcolor" : [ 0.317647, 0.654902, 0.976471, 1.0 ]
												}
,
												"parentstyle" : "",
												"multi" : 0
											}
, 											{
												"name" : "newobjCyan-1",
												"default" : 												{
													"accentcolor" : [ 0.029546, 0.773327, 0.821113, 1.0 ]
												}
,
												"parentstyle" : "",
												"multi" : 0
											}
, 											{
												"name" : "newobjGreen-1",
												"default" : 												{
													"accentcolor" : [ 0.0, 0.533333, 0.168627, 1.0 ]
												}
,
												"parentstyle" : "",
												"multi" : 0
											}
, 											{
												"name" : "newobjMagenta-1",
												"default" : 												{
													"accentcolor" : [ 0.840663, 0.060168, 0.769195, 1.0 ]
												}
,
												"parentstyle" : "",
												"multi" : 0
											}
, 											{
												"name" : "newobjYellow-1",
												"default" : 												{
													"accentcolor" : [ 0.82517, 0.78181, 0.059545, 1.0 ],
													"fontsize" : [ 12.059008 ]
												}
,
												"parentstyle" : "",
												"multi" : 0
											}
 ]
									}
,
									"patching_rect" : [ 339.5, 344.0, 81.0, 22.0 ],
									"saved_object_attributes" : 									{
										"description" : "",
										"digest" : "",
										"globalpatchername" : "",
										"tags" : ""
									}
,
									"text" : "p breakBytes"
								}

							}
, 							{
								"box" : 								{
									"id" : "obj-40",
									"maxclass" : "newobj",
									"numinlets" : 1,
									"numoutlets" : 2,
									"outlettype" : [ "bang", "int" ],
									"patching_rect" : [ 440.5, 310.0, 30.0, 22.0 ],
									"text" : "t b i"
								}

							}
, 							{
								"box" : 								{
									"id" : "obj-38",
									"maxclass" : "newobj",
									"numinlets" : 1,
									"numoutlets" : 2,
									"outlettype" : [ "", "" ],
									"patcher" : 									{
										"fileversion" : 1,
										"appversion" : 										{
											"major" : 8,
											"minor" : 1,
											"revision" : 3,
											"architecture" : "x64",
											"modernui" : 1
										}
,
										"classnamespace" : "box",
										"rect" : [ 84.0, 129.0, 640.0, 480.0 ],
										"bglocked" : 0,
										"openinpresentation" : 0,
										"default_fontsize" : 12.0,
										"default_fontface" : 0,
										"default_fontname" : "Arial",
										"gridonopen" : 1,
										"gridsize" : [ 15.0, 15.0 ],
										"gridsnaponopen" : 1,
										"objectsnaponopen" : 1,
										"statusbarvisible" : 2,
										"toolbarvisible" : 1,
										"lefttoolbarpinned" : 0,
										"toptoolbarpinned" : 0,
										"righttoolbarpinned" : 0,
										"bottomtoolbarpinned" : 0,
										"toolbars_unpinned_last_save" : 0,
										"tallnewobj" : 0,
										"boxanimatetime" : 200,
										"enablehscroll" : 1,
										"enablevscroll" : 1,
										"devicewidth" : 0.0,
										"description" : "",
										"digest" : "",
										"tags" : "",
										"style" : "",
										"subpatcher_template" : "",
										"boxes" : [ 											{
												"box" : 												{
													"comment" : "LSB",
													"id" : "obj-9",
													"index" : 2,
													"maxclass" : "outlet",
													"numinlets" : 1,
													"numoutlets" : 0,
													"patching_rect" : [ 91.0, 169.0, 30.0, 30.0 ]
												}

											}
, 											{
												"box" : 												{
													"comment" : "MSB",
													"id" : "obj-8",
													"index" : 1,
													"maxclass" : "outlet",
													"numinlets" : 1,
													"numoutlets" : 0,
													"patching_rect" : [ 34.0, 169.0, 30.0, 30.0 ]
												}

											}
, 											{
												"box" : 												{
													"comment" : "Input number to break into MSB and LSB",
													"id" : "obj-5",
													"index" : 1,
													"maxclass" : "inlet",
													"numinlets" : 0,
													"numoutlets" : 1,
													"outlettype" : [ "int" ],
													"patching_rect" : [ 32.0, 13.0, 30.0, 30.0 ]
												}

											}
, 											{
												"box" : 												{
													"id" : "obj-2",
													"maxclass" : "number",
													"numinlets" : 1,
													"numoutlets" : 2,
													"outlettype" : [ "", "bang" ],
													"parameter_enable" : 0,
													"patching_rect" : [ 34.0, 53.0, 50.0, 22.0 ]
												}

											}
, 											{
												"box" : 												{
													"id" : "obj-37",
													"maxclass" : "number",
													"numinlets" : 1,
													"numoutlets" : 2,
													"outlettype" : [ "", "bang" ],
													"parameter_enable" : 0,
													"patching_rect" : [ 91.0, 130.0, 50.0, 22.0 ]
												}

											}
, 											{
												"box" : 												{
													"id" : "obj-35",
													"maxclass" : "number",
													"numinlets" : 1,
													"numoutlets" : 2,
													"outlettype" : [ "", "bang" ],
													"parameter_enable" : 0,
													"patching_rect" : [ 34.0, 130.0, 50.0, 22.0 ]
												}

											}
, 											{
												"box" : 												{
													"id" : "obj-33",
													"maxclass" : "newobj",
													"numinlets" : 2,
													"numoutlets" : 1,
													"outlettype" : [ "int" ],
													"patching_rect" : [ 91.0, 96.0, 45.0, 22.0 ],
													"text" : "% 128"
												}

											}
, 											{
												"box" : 												{
													"id" : "obj-30",
													"maxclass" : "newobj",
													"numinlets" : 2,
													"numoutlets" : 1,
													"outlettype" : [ "int" ],
													"patching_rect" : [ 34.0, 96.0, 35.0, 22.0 ],
													"text" : ">> 7"
												}

											}
 ],
										"lines" : [ 											{
												"patchline" : 												{
													"destination" : [ "obj-30", 0 ],
													"order" : 1,
													"source" : [ "obj-2", 0 ]
												}

											}
, 											{
												"patchline" : 												{
													"destination" : [ "obj-33", 0 ],
													"order" : 0,
													"source" : [ "obj-2", 0 ]
												}

											}
, 											{
												"patchline" : 												{
													"destination" : [ "obj-35", 0 ],
													"source" : [ "obj-30", 0 ]
												}

											}
, 											{
												"patchline" : 												{
													"destination" : [ "obj-37", 0 ],
													"source" : [ "obj-33", 0 ]
												}

											}
, 											{
												"patchline" : 												{
													"destination" : [ "obj-8", 0 ],
													"source" : [ "obj-35", 0 ]
												}

											}
, 											{
												"patchline" : 												{
													"destination" : [ "obj-9", 0 ],
													"source" : [ "obj-37", 0 ]
												}

											}
, 											{
												"patchline" : 												{
													"destination" : [ "obj-2", 0 ],
													"source" : [ "obj-5", 0 ]
												}

											}
 ],
										"styles" : [ 											{
												"name" : "AudioStatus_Menu",
												"default" : 												{
													"bgfillcolor" : 													{
														"type" : "color",
														"color" : [ 0.294118, 0.313726, 0.337255, 1 ],
														"color1" : [ 0.454902, 0.462745, 0.482353, 0.0 ],
														"color2" : [ 0.290196, 0.309804, 0.301961, 1.0 ],
														"angle" : 270.0,
														"proportion" : 0.39,
														"autogradient" : 0
													}

												}
,
												"parentstyle" : "",
												"multi" : 0
											}
, 											{
												"name" : "newobjBlue-1",
												"default" : 												{
													"accentcolor" : [ 0.317647, 0.654902, 0.976471, 1.0 ]
												}
,
												"parentstyle" : "",
												"multi" : 0
											}
, 											{
												"name" : "newobjCyan-1",
												"default" : 												{
													"accentcolor" : [ 0.029546, 0.773327, 0.821113, 1.0 ]
												}
,
												"parentstyle" : "",
												"multi" : 0
											}
, 											{
												"name" : "newobjGreen-1",
												"default" : 												{
													"accentcolor" : [ 0.0, 0.533333, 0.168627, 1.0 ]
												}
,
												"parentstyle" : "",
												"multi" : 0
											}
, 											{
												"name" : "newobjMagenta-1",
												"default" : 												{
													"accentcolor" : [ 0.840663, 0.060168, 0.769195, 1.0 ]
												}
,
												"parentstyle" : "",
												"multi" : 0
											}
, 											{
												"name" : "newobjYellow-1",
												"default" : 												{
													"accentcolor" : [ 0.82517, 0.78181, 0.059545, 1.0 ],
													"fontsize" : [ 12.059008 ]
												}
,
												"parentstyle" : "",
												"multi" : 0
											}
 ]
									}
,
									"patching_rect" : [ 439.0, 344.0, 81.0, 22.0 ],
									"saved_object_attributes" : 									{
										"description" : "",
										"digest" : "",
										"globalpatchername" : "",
										"tags" : ""
									}
,
									"text" : "p breakBytes"
								}

							}
, 							{
								"box" : 								{
									"id" : "obj-29",
									"maxclass" : "number",
									"maximum" : 3,
									"minimum" : 0,
									"mousefilter" : 1,
									"numinlets" : 1,
									"numoutlets" : 2,
									"outlettype" : [ "", "bang" ],
									"parameter_enable" : 0,
									"patching_rect" : [ 397.0, 250.0, 50.0, 22.0 ]
								}

							}
, 							{
								"box" : 								{
									"id" : "obj-100",
									"maxclass" : "button",
									"numinlets" : 1,
									"numoutlets" : 1,
									"outlettype" : [ "bang" ],
									"parameter_enable" : 0,
									"patching_rect" : [ 526.0, 344.0, 24.0, 24.0 ]
								}

							}
, 							{
								"box" : 								{
									"id" : "obj-98",
									"maxclass" : "newobj",
									"numinlets" : 1,
									"numoutlets" : 4,
									"outlettype" : [ "bang", "bang", "bang", "bang" ],
									"patching_rect" : [ 526.0, 377.0, 54.0, 22.0 ],
									"text" : "t b b b b"
								}

							}
, 							{
								"box" : 								{
									"id" : "obj-48",
									"maxclass" : "message",
									"numinlets" : 2,
									"numoutlets" : 1,
									"outlettype" : [ "" ],
									"patching_rect" : [ 441.0, 410.0, 31.0, 22.0 ],
									"text" : "30"
								}

							}
, 							{
								"box" : 								{
									"id" : "obj-32",
									"maxclass" : "message",
									"numinlets" : 2,
									"numoutlets" : 1,
									"outlettype" : [ "" ],
									"patching_rect" : [ 507.0, 410.0, 29.5, 22.0 ],
									"text" : "0"
								}

							}
, 							{
								"box" : 								{
									"id" : "obj-31",
									"maxclass" : "newobj",
									"numinlets" : 3,
									"numoutlets" : 0,
									"patching_rect" : [ 507.0, 456.0, 49.0, 22.0 ],
									"text" : "ctlout 6"
								}

							}
, 							{
								"box" : 								{
									"id" : "obj-27",
									"maxclass" : "message",
									"numinlets" : 2,
									"numoutlets" : 1,
									"outlettype" : [ "" ],
									"patching_rect" : [ 377.0, 410.0, 29.5, 22.0 ],
									"text" : "0"
								}

							}
, 							{
								"box" : 								{
									"id" : "obj-14",
									"maxclass" : "message",
									"numinlets" : 2,
									"numoutlets" : 1,
									"outlettype" : [ "" ],
									"patching_rect" : [ 314.5, 410.0, 29.5, 22.0 ],
									"text" : "0"
								}

							}
, 							{
								"box" : 								{
									"id" : "obj-16",
									"maxclass" : "newobj",
									"numinlets" : 3,
									"numoutlets" : 0,
									"patching_rect" : [ 441.0, 456.0, 56.0, 22.0 ],
									"text" : "ctlout 38"
								}

							}
, 							{
								"box" : 								{
									"id" : "obj-24",
									"maxclass" : "newobj",
									"numinlets" : 3,
									"numoutlets" : 0,
									"patching_rect" : [ 377.0, 456.0, 56.0, 22.0 ],
									"text" : "ctlout 99"
								}

							}
, 							{
								"box" : 								{
									"id" : "obj-26",
									"maxclass" : "newobj",
									"numinlets" : 3,
									"numoutlets" : 0,
									"patching_rect" : [ 314.5, 456.0, 56.0, 22.0 ],
									"text" : "ctlout 98"
								}

							}
, 							{
								"box" : 								{
									"fontname" : "Menlo Regular",
									"fontsize" : 10.0,
									"id" : "obj-15",
									"maxclass" : "comment",
									"numinlets" : 1,
									"numoutlets" : 0,
									"patching_rect" : [ 276.0, 50.0, 86.0, 18.0 ],
									"text" : "MIDI Device:"
								}

							}
, 							{
								"box" : 								{
									"id" : "obj-4",
									"maxclass" : "number",
									"numinlets" : 1,
									"numoutlets" : 2,
									"outlettype" : [ "", "bang" ],
									"parameter_enable" : 0,
									"patching_rect" : [ 116.0, 171.0, 50.0, 22.0 ]
								}

							}
, 							{
								"box" : 								{
									"id" : "obj-85",
									"maxclass" : "number",
									"maximum" : 15,
									"minimum" : 0,
									"numinlets" : 1,
									"numoutlets" : 2,
									"outlettype" : [ "", "bang" ],
									"parameter_enable" : 0,
									"patching_rect" : [ 268.0, 173.0, 50.0, 22.0 ],
									"varname" : "prophet08-midi-channel"
								}

							}
, 							{
								"box" : 								{
									"id" : "obj-3",
									"maxclass" : "number",
									"minimum" : 0,
									"numinlets" : 1,
									"numoutlets" : 2,
									"outlettype" : [ "", "bang" ],
									"parameter_enable" : 0,
									"patching_rect" : [ 211.0, 171.0, 50.0, 22.0 ],
									"varname" : "prophet08-nrpn-value"
								}

							}
, 							{
								"box" : 								{
									"comment" : "Name of the MIDI Device to Output",
									"id" : "obj-1",
									"index" : 5,
									"maxclass" : "inlet",
									"numinlets" : 0,
									"numoutlets" : 1,
									"outlettype" : [ "" ],
									"patching_rect" : [ 233.5, 44.0, 30.0, 30.0 ]
								}

							}
, 							{
								"box" : 								{
									"fontname" : "Menlo Regular",
									"fontsize" : 10.0,
									"id" : "obj-23",
									"maxclass" : "comment",
									"numinlets" : 1,
									"numoutlets" : 0,
									"patching_rect" : [ 121.5, 149.0, 42.0, 18.0 ],
									"text" : "value"
								}

							}
, 							{
								"box" : 								{
									"comment" : "MIDI Channel",
									"id" : "obj-22",
									"index" : 4,
									"maxclass" : "inlet",
									"numinlets" : 0,
									"numoutlets" : 1,
									"outlettype" : [ "" ],
									"patching_rect" : [ 191.0, 44.0, 30.0, 30.0 ]
								}

							}
, 							{
								"box" : 								{
									"comment" : "NRPN MIDI Number",
									"id" : "obj-21",
									"index" : 3,
									"maxclass" : "inlet",
									"numinlets" : 0,
									"numoutlets" : 1,
									"outlettype" : [ "int" ],
									"patching_rect" : [ 157.5, 44.0, 30.0, 30.0 ]
								}

							}
, 							{
								"box" : 								{
									"comment" : "On/Off Switch",
									"id" : "obj-20",
									"index" : 2,
									"maxclass" : "inlet",
									"numinlets" : 0,
									"numoutlets" : 1,
									"outlettype" : [ "" ],
									"patching_rect" : [ 119.5, 44.0, 30.0, 30.0 ]
								}

							}
, 							{
								"box" : 								{
									"comment" : "Input Value (int)",
									"id" : "obj-19",
									"index" : 1,
									"maxclass" : "inlet",
									"numinlets" : 0,
									"numoutlets" : 1,
									"outlettype" : [ "" ],
									"patching_rect" : [ 85.0, 44.0, 30.0, 30.0 ]
								}

							}
, 							{
								"box" : 								{
									"fontname" : "Menlo Regular",
									"fontsize" : 10.0,
									"id" : "obj-17",
									"maxclass" : "comment",
									"numinlets" : 1,
									"numoutlets" : 0,
									"patching_rect" : [ 268.0, 149.0, 85.0, 18.0 ],
									"text" : "MIDI Channel"
								}

							}
 ],
						"lines" : [ 							{
								"patchline" : 								{
									"destination" : [ "obj-16", 0 ],
									"order" : 1,
									"source" : [ "obj-1", 0 ]
								}

							}
, 							{
								"patchline" : 								{
									"destination" : [ "obj-24", 0 ],
									"order" : 2,
									"source" : [ "obj-1", 0 ]
								}

							}
, 							{
								"patchline" : 								{
									"destination" : [ "obj-26", 0 ],
									"order" : 3,
									"source" : [ "obj-1", 0 ]
								}

							}
, 							{
								"patchline" : 								{
									"destination" : [ "obj-31", 0 ],
									"order" : 0,
									"source" : [ "obj-1", 0 ]
								}

							}
, 							{
								"patchline" : 								{
									"destination" : [ "obj-98", 0 ],
									"source" : [ "obj-100", 0 ]
								}

							}
, 							{
								"patchline" : 								{
									"destination" : [ "obj-13", 0 ],
									"order" : 1,
									"source" : [ "obj-11", 1 ]
								}

							}
, 							{
								"patchline" : 								{
									"destination" : [ "obj-30", 0 ],
									"order" : 0,
									"source" : [ "obj-11", 1 ]
								}

							}
, 							{
								"patchline" : 								{
									"destination" : [ "obj-28", 0 ],
									"order" : 1,
									"source" : [ "obj-12", 1 ]
								}

							}
, 							{
								"patchline" : 								{
									"destination" : [ "obj-33", 0 ],
									"order" : 0,
									"source" : [ "obj-12", 1 ]
								}

							}
, 							{
								"patchline" : 								{
									"destination" : [ "obj-29", 0 ],
									"source" : [ "obj-13", 0 ]
								}

							}
, 							{
								"patchline" : 								{
									"destination" : [ "obj-26", 0 ],
									"source" : [ "obj-14", 0 ]
								}

							}
, 							{
								"patchline" : 								{
									"destination" : [ "obj-29", 0 ],
									"order" : 0,
									"source" : [ "obj-19", 0 ]
								}

							}
, 							{
								"patchline" : 								{
									"destination" : [ "obj-4", 0 ],
									"order" : 1,
									"source" : [ "obj-19", 0 ]
								}

							}
, 							{
								"patchline" : 								{
									"destination" : [ "obj-3", 0 ],
									"source" : [ "obj-21", 0 ]
								}

							}
, 							{
								"patchline" : 								{
									"destination" : [ "obj-85", 0 ],
									"source" : [ "obj-22", 0 ]
								}

							}
, 							{
								"patchline" : 								{
									"destination" : [ "obj-24", 0 ],
									"source" : [ "obj-27", 0 ]
								}

							}
, 							{
								"patchline" : 								{
									"destination" : [ "obj-29", 0 ],
									"source" : [ "obj-28", 0 ]
								}

							}
, 							{
								"patchline" : 								{
									"destination" : [ "obj-40", 0 ],
									"source" : [ "obj-29", 0 ]
								}

							}
, 							{
								"patchline" : 								{
									"destination" : [ "obj-58", 0 ],
									"source" : [ "obj-3", 0 ]
								}

							}
, 							{
								"patchline" : 								{
									"destination" : [ "obj-31", 0 ],
									"source" : [ "obj-32", 0 ]
								}

							}
, 							{
								"patchline" : 								{
									"destination" : [ "obj-32", 1 ],
									"source" : [ "obj-38", 0 ]
								}

							}
, 							{
								"patchline" : 								{
									"destination" : [ "obj-48", 1 ],
									"source" : [ "obj-38", 1 ]
								}

							}
, 							{
								"patchline" : 								{
									"destination" : [ "obj-29", 0 ],
									"source" : [ "obj-4", 0 ]
								}

							}
, 							{
								"patchline" : 								{
									"destination" : [ "obj-100", 0 ],
									"source" : [ "obj-40", 0 ]
								}

							}
, 							{
								"patchline" : 								{
									"destination" : [ "obj-38", 0 ],
									"source" : [ "obj-40", 1 ]
								}

							}
, 							{
								"patchline" : 								{
									"destination" : [ "obj-14", 1 ],
									"source" : [ "obj-41", 1 ]
								}

							}
, 							{
								"patchline" : 								{
									"destination" : [ "obj-27", 1 ],
									"source" : [ "obj-41", 0 ]
								}

							}
, 							{
								"patchline" : 								{
									"destination" : [ "obj-16", 0 ],
									"source" : [ "obj-48", 0 ]
								}

							}
, 							{
								"patchline" : 								{
									"destination" : [ "obj-41", 0 ],
									"source" : [ "obj-58", 0 ]
								}

							}
, 							{
								"patchline" : 								{
									"destination" : [ "obj-16", 2 ],
									"order" : 1,
									"source" : [ "obj-85", 0 ]
								}

							}
, 							{
								"patchline" : 								{
									"destination" : [ "obj-24", 2 ],
									"order" : 2,
									"source" : [ "obj-85", 0 ]
								}

							}
, 							{
								"patchline" : 								{
									"destination" : [ "obj-26", 2 ],
									"order" : 3,
									"source" : [ "obj-85", 0 ]
								}

							}
, 							{
								"patchline" : 								{
									"destination" : [ "obj-31", 2 ],
									"order" : 0,
									"source" : [ "obj-85", 0 ]
								}

							}
, 							{
								"patchline" : 								{
									"destination" : [ "obj-14", 0 ],
									"source" : [ "obj-98", 3 ]
								}

							}
, 							{
								"patchline" : 								{
									"destination" : [ "obj-27", 0 ],
									"source" : [ "obj-98", 2 ]
								}

							}
, 							{
								"patchline" : 								{
									"destination" : [ "obj-32", 0 ],
									"source" : [ "obj-98", 0 ]
								}

							}
, 							{
								"patchline" : 								{
									"destination" : [ "obj-48", 0 ],
									"source" : [ "obj-98", 1 ]
								}

							}
 ],
						"styles" : [ 							{
								"name" : "AudioStatus_Menu",
								"default" : 								{
									"bgfillcolor" : 									{
										"type" : "color",
										"color" : [ 0.294118, 0.313726, 0.337255, 1 ],
										"color1" : [ 0.454902, 0.462745, 0.482353, 0.0 ],
										"color2" : [ 0.290196, 0.309804, 0.301961, 1.0 ],
										"angle" : 270.0,
										"proportion" : 0.39,
										"autogradient" : 0
									}

								}
,
								"parentstyle" : "",
								"multi" : 0
							}
, 							{
								"name" : "newobjBlue-1",
								"default" : 								{
									"accentcolor" : [ 0.317647, 0.654902, 0.976471, 1.0 ]
								}
,
								"parentstyle" : "",
								"multi" : 0
							}
, 							{
								"name" : "newobjCyan-1",
								"default" : 								{
									"accentcolor" : [ 0.029546, 0.773327, 0.821113, 1.0 ]
								}
,
								"parentstyle" : "",
								"multi" : 0
							}
, 							{
								"name" : "newobjGreen-1",
								"default" : 								{
									"accentcolor" : [ 0.0, 0.533333, 0.168627, 1.0 ]
								}
,
								"parentstyle" : "",
								"multi" : 0
							}
, 							{
								"name" : "newobjMagenta-1",
								"default" : 								{
									"accentcolor" : [ 0.840663, 0.060168, 0.769195, 1.0 ]
								}
,
								"parentstyle" : "",
								"multi" : 0
							}
, 							{
								"name" : "newobjYellow-1",
								"default" : 								{
									"accentcolor" : [ 0.82517, 0.78181, 0.059545, 1.0 ],
									"fontsize" : [ 12.059008 ]
								}
,
								"parentstyle" : "",
								"multi" : 0
							}
 ]
					}
,
					"patching_rect" : [ 386.158578887581712, 278.198649360259878, 123.0, 22.0 ],
					"saved_object_attributes" : 					{
						"description" : "",
						"digest" : "",
						"globalpatchername" : "",
						"tags" : ""
					}
,
					"text" : "p nrpn",
					"varname" : "nrpn"
				}

			}
, 			{
				"box" : 				{
					"id" : "obj-399",
					"maxclass" : "number",
					"maximum" : 16,
					"minimum" : 0,
					"numinlets" : 1,
					"numoutlets" : 2,
					"outlettype" : [ "", "bang" ],
					"parameter_enable" : 0,
					"patching_rect" : [ 211.692919353644129, 232.563121130348009, 40.0, 22.0 ],
					"varname" : "midi-channel[1]"
				}

			}
, 			{
				"box" : 				{
					"fontname" : "Menlo Regular",
					"fontsize" : 10.0,
					"id" : "obj-107",
					"maxclass" : "comment",
					"numinlets" : 1,
					"numoutlets" : 0,
					"patching_rect" : [ 211.692919353644129, 212.563121130348009, 85.0, 18.0 ],
					"text" : "MIDI Channel"
				}

			}
, 			{
				"box" : 				{
					"id" : "obj-404",
					"maxclass" : "number",
					"maximum" : 127,
					"minimum" : 0,
					"numinlets" : 1,
					"numoutlets" : 2,
					"outlettype" : [ "", "bang" ],
					"parameter_enable" : 0,
					"patching_rect" : [ 47.413225889205933, 157.251246846477443, 50.0, 22.0 ]
				}

			}
, 			{
				"box" : 				{
					"id" : "obj-115",
					"maxclass" : "newobj",
					"numinlets" : 3,
					"numoutlets" : 0,
					"patching_rect" : [ 118.209779620170593, 240.82758348214702, 40.0, 22.0 ],
					"text" : "ctlout"
				}

			}
, 			{
				"box" : 				{
					"angle" : 269.100611091931512,
					"bgcolor" : [ 0.992156862745098, 0.066666666666667, 0.0, 0.23 ],
					"id" : "obj-251",
					"maxclass" : "panel",
					"mode" : 0,
					"numinlets" : 1,
					"numoutlets" : 0,
					"patching_rect" : [ 118.209779620170593, 135.28675749226386, 211.608336349328283, 71.0 ],
					"proportion" : 0.01,
					"rounded" : 4,
					"style" : "AudioStatus_Menu"
				}

			}
, 			{
				"box" : 				{
					"angle" : 269.100611091931512,
					"bgcolor" : [ 0.992, 0.067, 0.0, 0.23 ],
					"id" : "obj-252",
					"maxclass" : "panel",
					"mode" : 0,
					"numinlets" : 1,
					"numoutlets" : 0,
					"patching_rect" : [ 451.4478314667939, 139.979913903793204, 212.108325868845213, 71.0 ],
					"proportion" : 0.01,
					"rounded" : 4,
					"style" : "AudioStatus_Menu"
				}

			}
 ],
		"lines" : [ 			{
				"patchline" : 				{
					"destination" : [ "obj-163", 0 ],
					"source" : [ "obj-155", 0 ]
				}

			}
, 			{
				"patchline" : 				{
					"destination" : [ "obj-558", 0 ],
					"source" : [ "obj-163", 1 ]
				}

			}
, 			{
				"patchline" : 				{
					"destination" : [ "obj-155", 0 ],
					"source" : [ "obj-18", 0 ]
				}

			}
, 			{
				"patchline" : 				{
					"destination" : [ "obj-115", 0 ],
					"source" : [ "obj-2", 0 ]
				}

			}
, 			{
				"patchline" : 				{
					"destination" : [ "obj-115", 1 ],
					"source" : [ "obj-247", 0 ]
				}

			}
, 			{
				"patchline" : 				{
					"destination" : [ "obj-247", 0 ],
					"source" : [ "obj-248", 0 ]
				}

			}
, 			{
				"patchline" : 				{
					"destination" : [ "obj-537", 4 ],
					"source" : [ "obj-3", 0 ]
				}

			}
, 			{
				"patchline" : 				{
					"destination" : [ "obj-115", 2 ],
					"source" : [ "obj-399", 0 ]
				}

			}
, 			{
				"patchline" : 				{
					"destination" : [ "obj-115", 0 ],
					"source" : [ "obj-404", 0 ]
				}

			}
, 			{
				"patchline" : 				{
					"destination" : [ "obj-537", 0 ],
					"source" : [ "obj-531", 0 ]
				}

			}
, 			{
				"patchline" : 				{
					"destination" : [ "obj-537", 3 ],
					"source" : [ "obj-532", 0 ]
				}

			}
, 			{
				"patchline" : 				{
					"destination" : [ "obj-537", 2 ],
					"source" : [ "obj-556", 0 ]
				}

			}
, 			{
				"patchline" : 				{
					"destination" : [ "obj-556", 0 ],
					"source" : [ "obj-557", 0 ]
				}

			}
, 			{
				"patchline" : 				{
					"destination" : [ "obj-1", 0 ],
					"source" : [ "obj-558", 0 ]
				}

			}
 ],
		"dependency_cache" : [  ],
		"autosave" : 0,
		"boxgroups" : [ 			{
				"boxes" : [ "obj-247", "obj-248", "obj-251", "obj-246" ]
			}
, 			{
				"boxes" : [ "obj-252", "obj-555", "obj-556", "obj-557" ]
			}
 ],
		"styles" : [ 			{
				"name" : "AudioStatus_Menu",
				"default" : 				{
					"bgfillcolor" : 					{
						"type" : "color",
						"color" : [ 0.294118, 0.313726, 0.337255, 1 ],
						"color1" : [ 0.454902, 0.462745, 0.482353, 0.0 ],
						"color2" : [ 0.290196, 0.309804, 0.301961, 1.0 ],
						"angle" : 270.0,
						"proportion" : 0.39,
						"autogradient" : 0
					}

				}
,
				"parentstyle" : "",
				"multi" : 0
			}
, 			{
				"name" : "new_yellow",
				"default" : 				{
					"accentcolor" : [ 0.32549, 0.345098, 0.372549, 1.0 ],
					"bgcolor" : [ 0.0, 0.0, 0.0, 1.0 ],
					"elementcolor" : [ 0.862745, 0.741176, 0.137255, 1.0 ],
					"color" : [ 0.960784, 0.827451, 0.156863, 1.0 ],
					"patchlinecolor" : [ 0.862745, 0.741176, 0.137255, 0.9 ],
					"bgfillcolor" : 					{
						"type" : "gradient",
						"color" : [ 0.290196, 0.309804, 0.301961, 1.0 ],
						"color1" : [ 0.239216, 0.254902, 0.278431, 1.0 ],
						"color2" : [ 0.0, 0.0, 0.0, 1.0 ],
						"angle" : 270.0,
						"proportion" : 0.39,
						"autogradient" : 0
					}

				}
,
				"newobj" : 				{
					"accentcolor" : [ 0.32549, 0.345098, 0.372549, 1.0 ]
				}
,
				"button" : 				{
					"bgcolor" : [ 0.0, 0.0, 0.0, 1.0 ],
					"elementcolor" : [ 0.862745, 0.741176, 0.137255, 1.0 ],
					"color" : [ 0.960784, 0.827451, 0.156863, 1.0 ]
				}
,
				"toggle" : 				{
					"elementcolor" : [ 0.32549, 0.345098, 0.372549, 1.0 ],
					"color" : [ 0.960784, 0.827451, 0.156863, 1.0 ]
				}
,
				"radiogroup" : 				{
					"color" : [ 0.960784, 0.827451, 0.156863, 1.0 ]
				}
,
				"parentstyle" : "",
				"multi" : 0
			}
, 			{
				"name" : "new_yellow-1",
				"default" : 				{
					"accentcolor" : [ 0.32549, 0.345098, 0.372549, 1.0 ],
					"bgcolor" : [ 0.0, 0.0, 0.0, 1.0 ],
					"elementcolor" : [ 0.0, 0.0, 0.0, 1.0 ],
					"color" : [ 0.960784, 0.827451, 0.156863, 1.0 ],
					"patchlinecolor" : [ 0.862745, 0.741176, 0.137255, 0.9 ],
					"bgfillcolor" : 					{
						"type" : "gradient",
						"color" : [ 0.290196, 0.309804, 0.301961, 1.0 ],
						"color1" : [ 0.239216, 0.254902, 0.278431, 1.0 ],
						"color2" : [ 0.0, 0.0, 0.0, 1.0 ],
						"angle" : 270.0,
						"proportion" : 0.39,
						"autogradient" : 0
					}

				}
,
				"newobj" : 				{
					"accentcolor" : [ 0.32549, 0.345098, 0.372549, 1.0 ]
				}
,
				"button" : 				{
					"bgcolor" : [ 0.0, 0.0, 0.0, 1.0 ],
					"elementcolor" : [ 0.862745, 0.741176, 0.137255, 1.0 ],
					"color" : [ 0.960784, 0.827451, 0.156863, 1.0 ]
				}
,
				"toggle" : 				{
					"elementcolor" : [ 0.32549, 0.345098, 0.372549, 1.0 ],
					"color" : [ 0.960784, 0.827451, 0.156863, 1.0 ]
				}
,
				"radiogroup" : 				{
					"color" : [ 0.960784, 0.827451, 0.156863, 1.0 ]
				}
,
				"parentstyle" : "",
				"multi" : 0
			}
, 			{
				"name" : "new_yellow-1-1",
				"default" : 				{
					"accentcolor" : [ 0.32549, 0.345098, 0.372549, 1.0 ],
					"bgcolor" : [ 0.0, 0.0, 0.0, 1.0 ],
					"elementcolor" : [ 0.0, 0.0, 0.0, 1.0 ],
					"color" : [ 0.960784, 0.827451, 0.156863, 1.0 ],
					"textcolor" : [ 0.960784, 0.827451, 0.156863, 1.0 ],
					"patchlinecolor" : [ 0.862745, 0.741176, 0.137255, 0.9 ],
					"bgfillcolor" : 					{
						"type" : "gradient",
						"color" : [ 0.290196, 0.309804, 0.301961, 1.0 ],
						"color1" : [ 0.239216, 0.254902, 0.278431, 1.0 ],
						"color2" : [ 0.0, 0.0, 0.0, 1.0 ],
						"angle" : 270.0,
						"proportion" : 0.39,
						"autogradient" : 0
					}

				}
,
				"newobj" : 				{
					"accentcolor" : [ 0.32549, 0.345098, 0.372549, 1.0 ]
				}
,
				"button" : 				{
					"bgcolor" : [ 0.0, 0.0, 0.0, 1.0 ],
					"elementcolor" : [ 0.862745, 0.741176, 0.137255, 1.0 ],
					"color" : [ 0.960784, 0.827451, 0.156863, 1.0 ]
				}
,
				"toggle" : 				{
					"elementcolor" : [ 0.32549, 0.345098, 0.372549, 1.0 ],
					"color" : [ 0.960784, 0.827451, 0.156863, 1.0 ]
				}
,
				"radiogroup" : 				{
					"color" : [ 0.960784, 0.827451, 0.156863, 1.0 ]
				}
,
				"parentstyle" : "",
				"multi" : 0
			}
, 			{
				"name" : "newobjBlue-1",
				"default" : 				{
					"accentcolor" : [ 0.317647, 0.654902, 0.976471, 1.0 ]
				}
,
				"parentstyle" : "",
				"multi" : 0
			}
, 			{
				"name" : "newobjCyan-1",
				"default" : 				{
					"accentcolor" : [ 0.029546, 0.773327, 0.821113, 1.0 ]
				}
,
				"parentstyle" : "",
				"multi" : 0
			}
, 			{
				"name" : "newobjGreen-1",
				"default" : 				{
					"accentcolor" : [ 0.0, 0.533333, 0.168627, 1.0 ]
				}
,
				"parentstyle" : "",
				"multi" : 0
			}
, 			{
				"name" : "newobjMagenta-1",
				"default" : 				{
					"accentcolor" : [ 0.840663, 0.060168, 0.769195, 1.0 ]
				}
,
				"parentstyle" : "",
				"multi" : 0
			}
, 			{
				"name" : "newobjYellow-1",
				"default" : 				{
					"accentcolor" : [ 0.82517, 0.78181, 0.059545, 1.0 ],
					"fontsize" : [ 12.059008 ]
				}
,
				"parentstyle" : "",
				"multi" : 0
			}
, 			{
				"name" : "numberGold-1",
				"default" : 				{
					"accentcolor" : [ 0.764706, 0.592157, 0.101961, 1.0 ]
				}
,
				"parentstyle" : "",
				"multi" : 0
			}
, 			{
				"name" : "rsliderGold",
				"default" : 				{
					"bgcolor" : [ 0.764706, 0.592157, 0.101961, 1.0 ],
					"color" : [ 0.646639, 0.821777, 0.854593, 1.0 ]
				}
,
				"parentstyle" : "",
				"multi" : 0
			}
 ]
	}

}
